<?xml version="1.0" encoding="UTF-8" standalone="no"?>
<!DOCTYPE svg PUBLIC "-//W3C//DTD SVG 1.1//EN"
 "http://www.w3.org/Graphics/SVG/1.1/DTD/svg11.dtd">
<!-- Generated by graphviz version 2.38.0 (20140413.2041)
 -->
<!-- Title: %3 Pages: 1 -->
<svg width="387pt" height="966pt"
 viewBox="0.00 0.00 386.50 966.00" xmlns="http://www.w3.org/2000/svg" xmlns:xlink="http://www.w3.org/1999/xlink">
<g id="graph0" class="graph" transform="scale(1 1) rotate(0) translate(4 962)">
<title>%3</title>
<polygon fill="white" stroke="none" points="-4,4 -4,-962 382.5,-962 382.5,4 -4,4"/>
<text text-anchor="middle" x="189.25" y="-9.2" font-family="Times,serif" font-size="16.00">Case recruitment</text>
<!-- A -->
<g id="node1" class="node"><title>A</title>
<polygon fill="none" stroke="black" points="278.5,-958 122.5,-958 122.5,-802 278.5,-802 278.5,-958"/>
<text text-anchor="middle" x="200.5" y="-906.3" font-family="Helvetica,sans-Serif" font-size="14.00">Inclusion criteria:</text>
<text text-anchor="middle" x="200.5" y="-891.3" font-family="Helvetica,sans-Serif" font-size="14.00"> Male </text>
<text text-anchor="middle" x="200.5" y="-876.3" font-family="Helvetica,sans-Serif" font-size="14.00"> Outpatient department</text>
<text text-anchor="middle" x="200.5" y="-861.3" font-family="Helvetica,sans-Serif" font-size="14.00"> attendee between</text>
<text text-anchor="middle" x="200.5" y="-846.3" font-family="Helvetica,sans-Serif" font-size="14.00"> 02.17 and 10.19</text>
</g>
<!-- B -->
<g id="node2" class="node"><title>B</title>
<polygon fill="none" stroke="black" points="334,-766 67,-766 67,-499 334,-499 334,-766"/>
<text text-anchor="middle" x="200.5" y="-636.3" font-family="Helvetica,sans-Serif" font-size="14.00">A control clinic is randomly selected</text>
<text text-anchor="middle" x="200.5" y="-621.3" font-family="Helvetica,sans-Serif" font-size="14.00"> (from all clinics, not limited to respiratory)</text>
</g>
<!-- A&#45;&gt;B -->
<g id="edge1" class="edge"><title>A&#45;&gt;B</title>
<path fill="none" stroke="black" d="M200.5,-801.996C200.5,-793.618 200.5,-784.908 200.5,-776.058"/>
<polygon fill="black" stroke="black" points="200.5,-766.015 205,-776.015 200.5,-771.015 200.5,-776.015 200.5,-776.015 200.5,-776.015 200.5,-771.015 196,-776.015 200.5,-766.015 200.5,-766.015"/>
</g>
<!-- C -->
<g id="node3" class="node"><title>C</title>
<polygon fill="none" stroke="black" points="299.5,-463 101.5,-463 101.5,-265 299.5,-265 299.5,-463"/>
<text text-anchor="middle" x="200.5" y="-382.8" font-family="Helvetica,sans-Serif" font-size="14.00">Local team</text>
<text text-anchor="middle" x="200.5" y="-367.8" font-family="Helvetica,sans-Serif" font-size="14.00"> write to clinic lead clinician</text>
<text text-anchor="middle" x="200.5" y="-352.8" font-family="Helvetica,sans-Serif" font-size="14.00"> to obtain permission to recruit</text>
<text text-anchor="middle" x="200.5" y="-337.8" font-family="Helvetica,sans-Serif" font-size="14.00"> from clinic</text>
</g>
<!-- B&#45;&gt;C -->
<g id="edge2" class="edge"><title>B&#45;&gt;C</title>
<path fill="none" stroke="black" d="M200.5,-498.64C200.5,-490.113 200.5,-481.583 200.5,-473.191"/>
<polygon fill="black" stroke="black" points="200.5,-463.031 205,-473.031 200.5,-468.031 200.5,-473.031 200.5,-473.031 200.5,-473.031 200.5,-468.031 196,-473.032 200.5,-463.031 200.5,-463.031"/>
</g>
<!-- D -->
<g id="node4" class="node"><title>D</title>
<polygon fill="none" stroke="black" points="203,-229 1.42109e-14,-229 1.42109e-14,-26 203,-26 203,-229"/>
<text text-anchor="middle" x="101.5" y="-131.3" font-family="Helvetica,sans-Serif" font-size="14.00">Central research team updated</text>
<text text-anchor="middle" x="101.5" y="-116.3" font-family="Helvetica,sans-Serif" font-size="14.00"> monthly</text>
</g>
<!-- C&#45;&gt;D -->
<g id="edge4" class="edge"><title>C&#45;&gt;D</title>
<path fill="none" stroke="black" d="M159.089,-264.91C155.431,-256.246 151.713,-247.438 148.017,-238.684"/>
<polygon fill="black" stroke="black" points="144.019,-229.214 152.054,-236.677 145.964,-233.821 147.908,-238.427 147.908,-238.427 147.908,-238.427 145.964,-233.821 143.763,-240.177 144.019,-229.214 144.019,-229.214"/>
</g>
<!-- E -->
<g id="node5" class="node"><title>E</title>
<polygon fill="none" stroke="black" points="378.5,-206.5 220.5,-206.5 220.5,-48.5 378.5,-48.5 378.5,-206.5"/>
<text text-anchor="middle" x="299.5" y="-191.3" font-family="Helvetica,sans-Serif" font-size="14.00">Exclusion criteria:</text>
<text text-anchor="middle" x="299.5" y="-176.3" font-family="Helvetica,sans-Serif" font-size="14.00"> Unable to consent</text>
<text text-anchor="middle" x="299.5" y="-161.3" font-family="Helvetica,sans-Serif" font-size="14.00"> Ever worked outside</text>
<text text-anchor="middle" x="299.5" y="-146.3" font-family="Helvetica,sans-Serif" font-size="14.00"> the UK</text>
<text text-anchor="middle" x="299.5" y="-131.3" font-family="Helvetica,sans-Serif" font-size="14.00">(does not include work </text>
<text text-anchor="middle" x="299.5" y="-116.3" font-family="Helvetica,sans-Serif" font-size="14.00"> outside the UK </text>
<text text-anchor="middle" x="299.5" y="-101.3" font-family="Helvetica,sans-Serif" font-size="14.00"> by members of the </text>
<text text-anchor="middle" x="299.5" y="-86.3" font-family="Helvetica,sans-Serif" font-size="14.00"> armed forces</text>
<text text-anchor="middle" x="299.5" y="-71.3" font-family="Helvetica,sans-Serif" font-size="14.00"> or merchant navy</text>
<text text-anchor="middle" x="299.5" y="-56.3" font-family="Helvetica,sans-Serif" font-size="14.00"> Diagnosis of IPF)</text>
</g>
<!-- C&#45;&gt;E -->
<g id="edge5" class="edge"><title>C&#45;&gt;E</title>
<path fill="none" stroke="black" d="M241.911,-264.91C248.777,-248.648 255.855,-231.881 262.6,-215.905"/>
<polygon fill="black" stroke="black" points="266.528,-206.6 266.784,-217.563 264.583,-211.207 262.639,-215.813 262.639,-215.813 262.639,-215.813 264.583,-211.207 258.493,-214.063 266.528,-206.6 266.528,-206.6"/>
</g>
<!-- D&#45;&gt;E -->
<g id="edge3" class="edge"><title>D&#45;&gt;E</title>
<path fill="none" stroke="black" d="M203.207,-127.5C205.499,-127.5 207.791,-127.5 210.083,-127.5"/>
<polygon fill="black" stroke="black" points="220.134,-127.5 210.134,-132 215.134,-127.5 210.134,-127.5 210.134,-127.5 210.134,-127.5 215.134,-127.5 210.133,-123 220.134,-127.5 220.134,-127.5"/>
</g>
</g>
</svg>
