<?xml version="1.0" encoding="UTF-8" standalone="no"?>
<!DOCTYPE svg PUBLIC "-//W3C//DTD SVG 1.1//EN"
 "http://www.w3.org/Graphics/SVG/1.1/DTD/svg11.dtd">
<!-- Generated by graphviz version 2.38.0 (20140413.2041)
 -->
<!-- Title: %3 Pages: 1 -->
<svg width="412pt" height="1129pt"
 viewBox="0.00 0.00 411.50 1129.00" xmlns="http://www.w3.org/2000/svg" xmlns:xlink="http://www.w3.org/1999/xlink">
<g id="graph0" class="graph" transform="scale(1 1) rotate(0) translate(4 1125)">
<title>%3</title>
<polygon fill="white" stroke="none" points="-4,4 -4,-1125 407.5,-1125 407.5,4 -4,4"/>
<text text-anchor="middle" x="201.75" y="-7.8" font-family="Times,serif" font-size="14.00">Control recruitment</text>
<!-- A -->
<g id="node1" class="node"><title>A</title>
<polygon fill="none" stroke="black" points="191.5,-1121 35.5,-1121 35.5,-965 191.5,-965 191.5,-1121"/>
<text text-anchor="middle" x="113.5" y="-1069.3" font-family="Helvetica,sans-Serif" font-size="14.00">Inclusion criteria:</text>
<text text-anchor="middle" x="113.5" y="-1054.3" font-family="Helvetica,sans-Serif" font-size="14.00"> Male </text>
<text text-anchor="middle" x="113.5" y="-1039.3" font-family="Helvetica,sans-Serif" font-size="14.00"> Outpatient department</text>
<text text-anchor="middle" x="113.5" y="-1024.3" font-family="Helvetica,sans-Serif" font-size="14.00"> attendee between</text>
<text text-anchor="middle" x="113.5" y="-1009.3" font-family="Helvetica,sans-Serif" font-size="14.00"> 02.17 and 10.19</text>
</g>
<!-- B -->
<g id="node2" class="node"><title>B</title>
<polygon fill="none" stroke="black" points="198.5,-929 28.5,-929 28.5,-759 198.5,-759 198.5,-929"/>
<text text-anchor="middle" x="113.5" y="-862.8" font-family="Helvetica,sans-Serif" font-size="14.00">A control clinic is</text>
<text text-anchor="middle" x="113.5" y="-847.8" font-family="Helvetica,sans-Serif" font-size="14.00"> randomly selected</text>
<text text-anchor="middle" x="113.5" y="-832.8" font-family="Helvetica,sans-Serif" font-size="14.00"> (from all clinics, </text>
<text text-anchor="middle" x="113.5" y="-817.8" font-family="Helvetica,sans-Serif" font-size="14.00"> not limited to respiratory)</text>
</g>
<!-- A&#45;&gt;B -->
<g id="edge1" class="edge"><title>A&#45;&gt;B</title>
<path fill="none" stroke="black" d="M113.5,-964.988C113.5,-956.534 113.5,-947.857 113.5,-939.225"/>
<polygon fill="black" stroke="black" points="113.5,-929.127 118,-939.127 113.5,-934.127 113.5,-939.127 113.5,-939.127 113.5,-939.127 113.5,-934.127 109,-939.127 113.5,-929.127 113.5,-929.127"/>
</g>
<!-- C -->
<g id="node3" class="node"><title>C</title>
<polygon fill="none" stroke="black" points="212.5,-723 14.5,-723 14.5,-525 212.5,-525 212.5,-723"/>
<text text-anchor="middle" x="113.5" y="-642.8" font-family="Helvetica,sans-Serif" font-size="14.00">Local team</text>
<text text-anchor="middle" x="113.5" y="-627.8" font-family="Helvetica,sans-Serif" font-size="14.00"> write to clinic lead clinician</text>
<text text-anchor="middle" x="113.5" y="-612.8" font-family="Helvetica,sans-Serif" font-size="14.00"> to obtain permission to recruit</text>
<text text-anchor="middle" x="113.5" y="-597.8" font-family="Helvetica,sans-Serif" font-size="14.00"> from clinic</text>
</g>
<!-- B&#45;&gt;C -->
<g id="edge2" class="edge"><title>B&#45;&gt;C</title>
<path fill="none" stroke="black" d="M113.5,-758.716C113.5,-750.362 113.5,-741.804 113.5,-733.253"/>
<polygon fill="black" stroke="black" points="113.5,-723.229 118,-733.229 113.5,-728.229 113.5,-733.229 113.5,-733.229 113.5,-733.229 113.5,-728.229 109,-733.229 113.5,-723.229 113.5,-723.229"/>
</g>
<!-- D -->
<g id="node4" class="node"><title>D</title>
<polygon fill="none" stroke="black" points="227,-489 0,-489 0,-262 227,-262 227,-489"/>
<text text-anchor="middle" x="113.5" y="-416.8" font-family="Helvetica,sans-Serif" font-size="14.00">Patients provided with:</text>
<text text-anchor="middle" x="113.5" y="-401.8" font-family="Helvetica,sans-Serif" font-size="14.00"> Participant information sheet</text>
<text text-anchor="middle" x="113.5" y="-386.8" font-family="Helvetica,sans-Serif" font-size="14.00"> Participant job history sheet</text>
<text text-anchor="middle" x="113.5" y="-371.8" font-family="Helvetica,sans-Serif" font-size="14.00"> and enrolled at </text>
<text text-anchor="middle" x="113.5" y="-356.8" font-family="Helvetica,sans-Serif" font-size="14.00"> outpatient department attendance.</text>
<text text-anchor="middle" x="113.5" y="-341.8" font-family="Helvetica,sans-Serif" font-size="14.00"> Blood drawn and</text>
<text text-anchor="middle" x="113.5" y="-326.8" font-family="Helvetica,sans-Serif" font-size="14.00"> Case Report Form completed</text>
</g>
<!-- C&#45;&gt;D -->
<g id="edge4" class="edge"><title>C&#45;&gt;D</title>
<path fill="none" stroke="black" d="M113.5,-524.868C113.5,-516.473 113.5,-507.915 113.5,-499.36"/>
<polygon fill="black" stroke="black" points="113.5,-489.328 118,-499.328 113.5,-494.328 113.5,-499.328 113.5,-499.328 113.5,-499.328 113.5,-494.328 109,-499.328 113.5,-489.328 113.5,-489.328"/>
</g>
<!-- E -->
<g id="node5" class="node"><title>E</title>
<polygon fill="none" stroke="black" points="403.5,-454.5 245.5,-454.5 245.5,-296.5 403.5,-296.5 403.5,-454.5"/>
<text text-anchor="middle" x="324.5" y="-439.3" font-family="Helvetica,sans-Serif" font-size="14.00">Exclusion criteria:</text>
<text text-anchor="middle" x="324.5" y="-424.3" font-family="Helvetica,sans-Serif" font-size="14.00"> Unable to consent</text>
<text text-anchor="middle" x="324.5" y="-409.3" font-family="Helvetica,sans-Serif" font-size="14.00"> Ever worked outside</text>
<text text-anchor="middle" x="324.5" y="-394.3" font-family="Helvetica,sans-Serif" font-size="14.00"> the UK</text>
<text text-anchor="middle" x="324.5" y="-379.3" font-family="Helvetica,sans-Serif" font-size="14.00">(does not include work </text>
<text text-anchor="middle" x="324.5" y="-364.3" font-family="Helvetica,sans-Serif" font-size="14.00"> outside the UK </text>
<text text-anchor="middle" x="324.5" y="-349.3" font-family="Helvetica,sans-Serif" font-size="14.00"> by members of the </text>
<text text-anchor="middle" x="324.5" y="-334.3" font-family="Helvetica,sans-Serif" font-size="14.00"> armed forces</text>
<text text-anchor="middle" x="324.5" y="-319.3" font-family="Helvetica,sans-Serif" font-size="14.00"> or merchant navy</text>
<text text-anchor="middle" x="324.5" y="-304.3" font-family="Helvetica,sans-Serif" font-size="14.00"> Diagnosis of IPF)</text>
</g>
<!-- D&#45;&gt;E -->
<g id="edge3" class="edge"><title>D&#45;&gt;E</title>
<path fill="none" stroke="black" d="M227.242,-375.5C229.902,-375.5 232.561,-375.5 235.22,-375.5"/>
<polygon fill="black" stroke="black" points="245.478,-375.5 235.478,-380 240.478,-375.5 235.478,-375.5 235.478,-375.5 235.478,-375.5 240.478,-375.5 235.478,-371 245.478,-375.5 245.478,-375.5"/>
</g>
<!-- F -->
<g id="node6" class="node"><title>F</title>
<polygon fill="none" stroke="black" points="215,-226 12,-226 12,-23 215,-23 215,-226"/>
<text text-anchor="middle" x="113.5" y="-128.3" font-family="Helvetica,sans-Serif" font-size="14.00">Central research team updated</text>
<text text-anchor="middle" x="113.5" y="-113.3" font-family="Helvetica,sans-Serif" font-size="14.00"> monthly</text>
</g>
<!-- D&#45;&gt;F -->
<g id="edge5" class="edge"><title>D&#45;&gt;F</title>
<path fill="none" stroke="black" d="M113.5,-261.657C113.5,-253.24 113.5,-244.753 113.5,-236.349"/>
<polygon fill="black" stroke="black" points="113.5,-226.15 118,-236.15 113.5,-231.15 113.5,-236.15 113.5,-236.15 113.5,-236.15 113.5,-231.15 109,-236.15 113.5,-226.15 113.5,-226.15"/>
</g>
</g>
</svg>
