<?xml version="1.0" encoding="UTF-8" standalone="no"?>
<!DOCTYPE svg PUBLIC "-//W3C//DTD SVG 1.1//EN"
 "http://www.w3.org/Graphics/SVG/1.1/DTD/svg11.dtd">
<!-- Generated by graphviz version 2.38.0 (20140413.2041)
 -->
<!-- Title: %3 Pages: 1 -->
<svg width="235pt" height="426pt"
 viewBox="0.00 0.00 235.00 426.00" xmlns="http://www.w3.org/2000/svg" xmlns:xlink="http://www.w3.org/1999/xlink">
<g id="graph0" class="graph" transform="scale(1 1) rotate(0) translate(4 422)">
<title>%3</title>
<polygon fill="white" stroke="none" points="-4,4 -4,-422 231,-422 231,4 -4,4"/>
<!-- B -->
<g id="node1" class="node"><title>B</title>
<polygon fill="none" stroke="black" points="227,-418 0,-418 0,-191 227,-191 227,-418"/>
<text text-anchor="middle" x="113.5" y="-345.8" font-family="Helvetica,sans-Serif" font-size="14.00">Patients provided with:</text>
<text text-anchor="middle" x="113.5" y="-330.8" font-family="Helvetica,sans-Serif" font-size="14.00"> Participant information sheet</text>
<text text-anchor="middle" x="113.5" y="-315.8" font-family="Helvetica,sans-Serif" font-size="14.00"> Participant job history sheet</text>
<text text-anchor="middle" x="113.5" y="-300.8" font-family="Helvetica,sans-Serif" font-size="14.00"> and enrolled at </text>
<text text-anchor="middle" x="113.5" y="-285.8" font-family="Helvetica,sans-Serif" font-size="14.00"> outpatient department attendance.</text>
<text text-anchor="middle" x="113.5" y="-270.8" font-family="Helvetica,sans-Serif" font-size="14.00"> Blood drawn and</text>
<text text-anchor="middle" x="113.5" y="-255.8" font-family="Helvetica,sans-Serif" font-size="14.00"> Case Report Form completed</text>
</g>
<!-- C -->
<g id="node2" class="node"><title>C</title>
<polygon fill="none" stroke="black" points="191,-155 36,-155 36,-0 191,-0 191,-155"/>
<text text-anchor="middle" x="113.5" y="-133.8" font-family="Helvetica,sans-Serif" font-size="14.00">Exclusion criteria:</text>
<text text-anchor="middle" x="113.5" y="-118.8" font-family="Helvetica,sans-Serif" font-size="14.00"> Unable to consent</text>
<text text-anchor="middle" x="113.5" y="-103.8" font-family="Helvetica,sans-Serif" font-size="14.00"> Ever worked outside</text>
<text text-anchor="middle" x="113.5" y="-88.8" font-family="Helvetica,sans-Serif" font-size="14.00"> the UK</text>
<text text-anchor="middle" x="113.5" y="-73.8" font-family="Helvetica,sans-Serif" font-size="14.00">(does not include work </text>
<text text-anchor="middle" x="113.5" y="-58.8" font-family="Helvetica,sans-Serif" font-size="14.00"> outside the UK </text>
<text text-anchor="middle" x="113.5" y="-43.8" font-family="Helvetica,sans-Serif" font-size="14.00"> by members of the </text>
<text text-anchor="middle" x="113.5" y="-28.8" font-family="Helvetica,sans-Serif" font-size="14.00"> armed forces</text>
<text text-anchor="middle" x="113.5" y="-13.8" font-family="Helvetica,sans-Serif" font-size="14.00"> or merchant navy)</text>
</g>
<!-- B&#45;&gt;C -->
<g id="edge1" class="edge"><title>B&#45;&gt;C</title>
<path fill="none" stroke="black" d="M113.5,-190.67C113.5,-182.096 113.5,-173.523 113.5,-165.153"/>
<polygon fill="black" stroke="black" points="113.5,-155.056 118,-165.056 113.5,-160.056 113.5,-165.056 113.5,-165.056 113.5,-165.056 113.5,-160.056 109,-165.056 113.5,-155.056 113.5,-155.056"/>
</g>
</g>
</svg>
