<?xml version="1.0" encoding="UTF-8" standalone="no"?>
<!DOCTYPE svg PUBLIC "-//W3C//DTD SVG 1.1//EN"
 "http://www.w3.org/Graphics/SVG/1.1/DTD/svg11.dtd">
<!-- Generated by graphviz version 2.38.0 (20140413.2041)
 -->
<!-- Title: %3 Pages: 1 -->
<svg width="206pt" height="627pt"
 viewBox="0.00 0.00 206.00 627.00" xmlns="http://www.w3.org/2000/svg" xmlns:xlink="http://www.w3.org/1999/xlink">
<g id="graph0" class="graph" transform="scale(1 1) rotate(0) translate(4 623)">
<title>%3</title>
<polygon fill="white" stroke="none" points="-4,4 -4,-623 202,-623 202,4 -4,4"/>
<text text-anchor="middle" x="99" y="-7.8" font-family="Times,serif" font-size="14.00">Control recruitment</text>
<!-- A -->
<g id="node1" class="node"><title>A</title>
<polygon fill="none" stroke="black" points="177,-619 21,-619 21,-463 177,-463 177,-619"/>
<text text-anchor="middle" x="99" y="-567.3" font-family="Helvetica,sans-Serif" font-size="14.00">Inclusion criteria:</text>
<text text-anchor="middle" x="99" y="-552.3" font-family="Helvetica,sans-Serif" font-size="14.00"> Male </text>
<text text-anchor="middle" x="99" y="-537.3" font-family="Helvetica,sans-Serif" font-size="14.00"> Outpatient department</text>
<text text-anchor="middle" x="99" y="-522.3" font-family="Helvetica,sans-Serif" font-size="14.00"> attendee between</text>
<text text-anchor="middle" x="99" y="-507.3" font-family="Helvetica,sans-Serif" font-size="14.00"> 02.17 and 10.19</text>
</g>
<!-- B -->
<g id="node2" class="node"><title>B</title>
<polygon fill="none" stroke="black" points="184,-427 14,-427 14,-257 184,-257 184,-427"/>
<text text-anchor="middle" x="99" y="-360.8" font-family="Helvetica,sans-Serif" font-size="14.00">A control clinic is</text>
<text text-anchor="middle" x="99" y="-345.8" font-family="Helvetica,sans-Serif" font-size="14.00"> randomly selected</text>
<text text-anchor="middle" x="99" y="-330.8" font-family="Helvetica,sans-Serif" font-size="14.00"> (from all clinics, </text>
<text text-anchor="middle" x="99" y="-315.8" font-family="Helvetica,sans-Serif" font-size="14.00"> not limited to respiratory)</text>
</g>
<!-- A&#45;&gt;B -->
<g id="edge1" class="edge"><title>A&#45;&gt;B</title>
<path fill="none" stroke="black" d="M99,-462.988C99,-454.534 99,-445.857 99,-437.225"/>
<polygon fill="black" stroke="black" points="99,-427.127 103.5,-437.127 99,-432.127 99.0001,-437.127 99.0001,-437.127 99.0001,-437.127 99,-432.127 94.5001,-437.127 99,-427.127 99,-427.127"/>
</g>
<!-- C -->
<g id="node3" class="node"><title>C</title>
<polygon fill="none" stroke="black" points="198,-221 0,-221 0,-23 198,-23 198,-221"/>
<text text-anchor="middle" x="99" y="-140.8" font-family="Helvetica,sans-Serif" font-size="14.00">Local team</text>
<text text-anchor="middle" x="99" y="-125.8" font-family="Helvetica,sans-Serif" font-size="14.00"> write to clinic lead clinician</text>
<text text-anchor="middle" x="99" y="-110.8" font-family="Helvetica,sans-Serif" font-size="14.00"> to obtain permission to recruit</text>
<text text-anchor="middle" x="99" y="-95.8" font-family="Helvetica,sans-Serif" font-size="14.00"> from clinic</text>
</g>
<!-- B&#45;&gt;C -->
<g id="edge2" class="edge"><title>B&#45;&gt;C</title>
<path fill="none" stroke="black" d="M99,-256.716C99,-248.362 99,-239.804 99,-231.253"/>
<polygon fill="black" stroke="black" points="99,-221.229 103.5,-231.229 99,-226.229 99.0001,-231.229 99.0001,-231.229 99.0001,-231.229 99,-226.229 94.5001,-231.229 99,-221.229 99,-221.229"/>
</g>
</g>
</svg>
