<?xml version="1.0" encoding="UTF-8" standalone="no"?>
<!DOCTYPE svg PUBLIC "-//W3C//DTD SVG 1.1//EN"
 "http://www.w3.org/Graphics/SVG/1.1/DTD/svg11.dtd">
<!-- Generated by graphviz version 2.38.0 (20140413.2041)
 -->
<!-- Title: %3 Pages: 1 -->
<svg width="235pt" height="429pt"
 viewBox="0.00 0.00 235.00 429.00" xmlns="http://www.w3.org/2000/svg" xmlns:xlink="http://www.w3.org/1999/xlink">
<g id="graph0" class="graph" transform="scale(1 1) rotate(0) translate(4 425)">
<title>%3</title>
<polygon fill="white" stroke="none" points="-4,4 -4,-425 231,-425 231,4 -4,4"/>
<!-- D -->
<g id="node1" class="node"><title>D</title>
<polygon fill="none" stroke="black" points="227,-421 0,-421 0,-194 227,-194 227,-421"/>
<text text-anchor="middle" x="113.5" y="-348.8" font-family="Helvetica,sans-Serif" font-size="14.00">Patients provided with:</text>
<text text-anchor="middle" x="113.5" y="-333.8" font-family="Helvetica,sans-Serif" font-size="14.00"> Participant information sheet</text>
<text text-anchor="middle" x="113.5" y="-318.8" font-family="Helvetica,sans-Serif" font-size="14.00"> Participant job history sheet</text>
<text text-anchor="middle" x="113.5" y="-303.8" font-family="Helvetica,sans-Serif" font-size="14.00"> and enrolled at </text>
<text text-anchor="middle" x="113.5" y="-288.8" font-family="Helvetica,sans-Serif" font-size="14.00"> outpatient department attendance.</text>
<text text-anchor="middle" x="113.5" y="-273.8" font-family="Helvetica,sans-Serif" font-size="14.00"> Blood drawn and</text>
<text text-anchor="middle" x="113.5" y="-258.8" font-family="Helvetica,sans-Serif" font-size="14.00"> Case Report Form completed</text>
</g>
<!-- E -->
<g id="node2" class="node"><title>E</title>
<polygon fill="none" stroke="black" points="192.5,-158 34.5,-158 34.5,-0 192.5,-0 192.5,-158"/>
<text text-anchor="middle" x="113.5" y="-142.8" font-family="Helvetica,sans-Serif" font-size="14.00">Exclusion criteria:</text>
<text text-anchor="middle" x="113.5" y="-127.8" font-family="Helvetica,sans-Serif" font-size="14.00"> Unable to consent</text>
<text text-anchor="middle" x="113.5" y="-112.8" font-family="Helvetica,sans-Serif" font-size="14.00"> Ever worked outside</text>
<text text-anchor="middle" x="113.5" y="-97.8" font-family="Helvetica,sans-Serif" font-size="14.00"> the UK</text>
<text text-anchor="middle" x="113.5" y="-82.8" font-family="Helvetica,sans-Serif" font-size="14.00">(does not include work </text>
<text text-anchor="middle" x="113.5" y="-67.8" font-family="Helvetica,sans-Serif" font-size="14.00"> outside the UK </text>
<text text-anchor="middle" x="113.5" y="-52.8" font-family="Helvetica,sans-Serif" font-size="14.00"> by members of the </text>
<text text-anchor="middle" x="113.5" y="-37.8" font-family="Helvetica,sans-Serif" font-size="14.00"> armed forces</text>
<text text-anchor="middle" x="113.5" y="-22.8" font-family="Helvetica,sans-Serif" font-size="14.00"> or merchant navy</text>
<text text-anchor="middle" x="113.5" y="-7.8" font-family="Helvetica,sans-Serif" font-size="14.00"> Diagnosis of IPF)</text>
</g>
<!-- D&#45;&gt;E -->
<g id="edge1" class="edge"><title>D&#45;&gt;E</title>
<path fill="none" stroke="black" d="M113.5,-193.914C113.5,-185.31 113.5,-176.701 113.5,-168.286"/>
<polygon fill="black" stroke="black" points="113.5,-158.131 118,-168.13 113.5,-163.131 113.5,-168.131 113.5,-168.131 113.5,-168.131 113.5,-163.131 109,-168.131 113.5,-158.131 113.5,-158.131"/>
</g>
</g>
</svg>
