<?xml version="1.0" encoding="UTF-8" standalone="no"?>
<!DOCTYPE svg PUBLIC "-//W3C//DTD SVG 1.1//EN"
 "http://www.w3.org/Graphics/SVG/1.1/DTD/svg11.dtd">
<!-- Generated by graphviz version 2.38.0 (20140413.2041)
 -->
<!-- Title: %3 Pages: 1 -->
<svg width="343pt" height="1161pt"
 viewBox="0.00 0.00 343.00 1161.00" xmlns="http://www.w3.org/2000/svg" xmlns:xlink="http://www.w3.org/1999/xlink">
<g id="graph0" class="graph" transform="scale(1 1) rotate(0) translate(4 1157)">
<title>%3</title>
<polygon fill="white" stroke="none" points="-4,4 -4,-1157 339,-1157 339,4 -4,4"/>
<text text-anchor="middle" x="167.5" y="-7.8" font-family="Times,serif" font-size="14.00">IPFJES Flow Chart</text>
<!-- A -->
<g id="node1" class="node"><title>A</title>
<polygon fill="none" stroke="black" points="231.5,-1153 57.5,-1153 57.5,-979 231.5,-979 231.5,-1153"/>
<text text-anchor="middle" x="144.5" y="-1084.8" font-family="Helvetica,sans-Serif" font-size="14.00">Inclusion criteria:</text>
<text text-anchor="middle" x="144.5" y="-1069.8" font-family="Helvetica,sans-Serif" font-size="14.00"> Male </text>
<text text-anchor="middle" x="144.5" y="-1054.8" font-family="Helvetica,sans-Serif" font-size="14.00"> Diagnosis of IPF between</text>
<text text-anchor="middle" x="144.5" y="-1039.8" font-family="Helvetica,sans-Serif" font-size="14.00"> 02.17 and 10.19</text>
</g>
<!-- B -->
<g id="node2" class="node"><title>B</title>
<polygon fill="none" stroke="black" points="216,-943 73,-943 73,-800 216,-800 216,-943"/>
<text text-anchor="middle" x="144.5" y="-882.8" font-family="Helvetica,sans-Serif" font-size="14.00">4800 new diagnoses</text>
<text text-anchor="middle" x="144.5" y="-867.8" font-family="Helvetica,sans-Serif" font-size="14.00"> of IPF per year at</text>
<text text-anchor="middle" x="144.5" y="-852.8" font-family="Helvetica,sans-Serif" font-size="14.00"> 25 specialist centres</text>
</g>
<!-- A&#45;&gt;B -->
<g id="edge1" class="edge"><title>A&#45;&gt;B</title>
<path fill="none" stroke="black" d="M144.5,-978.885C144.5,-970.416 144.5,-961.841 144.5,-953.426"/>
<polygon fill="black" stroke="black" points="144.5,-943.26 149,-953.259 144.5,-948.26 144.5,-953.26 144.5,-953.26 144.5,-953.26 144.5,-948.26 140,-953.26 144.5,-943.26 144.5,-943.26"/>
</g>
<!-- C -->
<g id="node3" class="node"><title>C</title>
<polygon fill="none" stroke="black" points="227.5,-764 61.5,-764 61.5,-598 227.5,-598 227.5,-764"/>
<text text-anchor="middle" x="144.5" y="-692.3" font-family="Helvetica,sans-Serif" font-size="14.00">Estimated 3000 potential</text>
<text text-anchor="middle" x="144.5" y="-677.3" font-family="Helvetica,sans-Serif" font-size="14.00"> cases at 18</text>
<text text-anchor="middle" x="144.5" y="-662.3" font-family="Helvetica,sans-Serif" font-size="14.00"> participating centres</text>
</g>
<!-- B&#45;&gt;C -->
<g id="edge2" class="edge"><title>B&#45;&gt;C</title>
<path fill="none" stroke="black" d="M144.5,-799.773C144.5,-791.439 144.5,-782.842 144.5,-774.267"/>
<polygon fill="black" stroke="black" points="144.5,-764.228 149,-774.228 144.5,-769.228 144.5,-774.228 144.5,-774.228 144.5,-774.228 144.5,-769.228 140,-774.228 144.5,-764.228 144.5,-764.228"/>
</g>
<!-- D -->
<g id="node4" class="node"><title>D</title>
<polygon fill="none" stroke="black" points="155,-562 0,-562 0,-407 155,-407 155,-562"/>
<text text-anchor="middle" x="77.5" y="-540.8" font-family="Helvetica,sans-Serif" font-size="14.00">Exclusion criteria:</text>
<text text-anchor="middle" x="77.5" y="-525.8" font-family="Helvetica,sans-Serif" font-size="14.00"> Unable to consent</text>
<text text-anchor="middle" x="77.5" y="-510.8" font-family="Helvetica,sans-Serif" font-size="14.00"> Ever worked outside</text>
<text text-anchor="middle" x="77.5" y="-495.8" font-family="Helvetica,sans-Serif" font-size="14.00"> the UK</text>
<text text-anchor="middle" x="77.5" y="-480.8" font-family="Helvetica,sans-Serif" font-size="14.00">(does not include work </text>
<text text-anchor="middle" x="77.5" y="-465.8" font-family="Helvetica,sans-Serif" font-size="14.00"> outside the UK </text>
<text text-anchor="middle" x="77.5" y="-450.8" font-family="Helvetica,sans-Serif" font-size="14.00"> by members of the </text>
<text text-anchor="middle" x="77.5" y="-435.8" font-family="Helvetica,sans-Serif" font-size="14.00"> armed forces</text>
<text text-anchor="middle" x="77.5" y="-420.8" font-family="Helvetica,sans-Serif" font-size="14.00"> or merchant navy)</text>
</g>
<!-- C&#45;&gt;D -->
<g id="edge3" class="edge"><title>C&#45;&gt;D</title>
<path fill="none" stroke="black" d="M116.183,-597.796C113.225,-589.209 110.211,-580.461 107.238,-571.829"/>
<polygon fill="black" stroke="black" points="103.903,-562.148 111.415,-570.137 105.532,-566.875 107.16,-571.603 107.16,-571.603 107.16,-571.603 105.532,-566.875 102.905,-573.068 103.903,-562.148 103.903,-562.148"/>
</g>
<!-- E -->
<g id="node5" class="node"><title>E</title>
<polygon fill="none" stroke="black" points="251.5,-523.5 173.5,-523.5 173.5,-445.5 251.5,-445.5 251.5,-523.5"/>
<text text-anchor="middle" x="212.5" y="-480.8" font-family="Helvetica,sans-Serif" font-size="14.00">460 cases</text>
</g>
<!-- C&#45;&gt;E -->
<g id="edge4" class="edge"><title>C&#45;&gt;E</title>
<path fill="none" stroke="black" d="M173.24,-597.796C180.961,-575.712 189.053,-552.566 195.871,-533.065"/>
<polygon fill="black" stroke="black" points="199.209,-523.515 200.157,-534.44 197.559,-528.235 195.909,-532.955 195.909,-532.955 195.909,-532.955 197.559,-528.235 191.661,-531.47 199.209,-523.515 199.209,-523.515"/>
</g>
<!-- F -->
<g id="node6" class="node"><title>F</title>
<polygon fill="none" stroke="black" points="335,-371 90,-371 90,-126 335,-126 335,-371"/>
<text text-anchor="middle" x="212.5" y="-259.8" font-family="Helvetica,sans-Serif" font-size="14.00">Telephone interview for historic</text>
<text text-anchor="middle" x="212.5" y="-244.8" font-family="Helvetica,sans-Serif" font-size="14.00"> asbestos exposure assessment</text>
<text text-anchor="middle" x="212.5" y="-229.8" font-family="Helvetica,sans-Serif" font-size="14.00"> and blood test for genetic suceptibility</text>
</g>
<!-- E&#45;&gt;F -->
<g id="edge5" class="edge"><title>E&#45;&gt;F</title>
<path fill="none" stroke="black" d="M212.5,-445.383C212.5,-427.366 212.5,-404.677 212.5,-381.185"/>
<polygon fill="black" stroke="black" points="212.5,-371.08 217,-381.079 212.5,-376.08 212.5,-381.08 212.5,-381.08 212.5,-381.08 212.5,-376.08 208,-381.08 212.5,-371.08 212.5,-371.08"/>
</g>
<!-- G -->
<g id="node7" class="node"><title>G</title>
<polygon fill="none" stroke="black" points="246,-90 179,-90 179,-23 246,-23 246,-90"/>
<text text-anchor="middle" x="212.5" y="-52.8" font-family="Helvetica,sans-Serif" font-size="14.00">Analysis</text>
</g>
<!-- F&#45;&gt;G -->
<g id="edge6" class="edge"><title>F&#45;&gt;G</title>
<path fill="none" stroke="black" d="M212.5,-125.826C212.5,-116.954 212.5,-108.42 212.5,-100.569"/>
<polygon fill="black" stroke="black" points="212.5,-90.3185 217,-100.318 212.5,-95.3185 212.5,-100.318 212.5,-100.318 212.5,-100.318 212.5,-95.3185 208,-100.319 212.5,-90.3185 212.5,-90.3185"/>
</g>
</g>
</svg>
