<?xml version="1.0" encoding="UTF-8" standalone="no"?>
<!DOCTYPE svg PUBLIC "-//W3C//DTD SVG 1.1//EN"
 "http://www.w3.org/Graphics/SVG/1.1/DTD/svg11.dtd">
<!-- Generated by graphviz version 2.38.0 (20140413.2041)
 -->
<!-- Title: %3 Pages: 1 -->
<svg width="274pt" height="821pt"
 viewBox="0.00 0.00 274.00 821.00" xmlns="http://www.w3.org/2000/svg" xmlns:xlink="http://www.w3.org/1999/xlink">
<g id="graph0" class="graph" transform="scale(1 1) rotate(0) translate(4 817)">
<title>%3</title>
<polygon fill="white" stroke="none" points="-4,4 -4,-817 270,-817 270,4 -4,4"/>
<text text-anchor="middle" x="133" y="-7.8" font-family="Times,serif" font-size="14.00">Control recruitment</text>
<!-- H -->
<g id="node1" class="node"><title>H</title>
<polygon fill="none" stroke="black" points="228,-813 72,-813 72,-657 228,-657 228,-813"/>
<text text-anchor="middle" x="150" y="-761.3" font-family="Helvetica,sans-Serif" font-size="14.00">Inclusion criteria:</text>
<text text-anchor="middle" x="150" y="-746.3" font-family="Helvetica,sans-Serif" font-size="14.00"> Male </text>
<text text-anchor="middle" x="150" y="-731.3" font-family="Helvetica,sans-Serif" font-size="14.00"> Outpatient department</text>
<text text-anchor="middle" x="150" y="-716.3" font-family="Helvetica,sans-Serif" font-size="14.00"> attendee between</text>
<text text-anchor="middle" x="150" y="-701.3" font-family="Helvetica,sans-Serif" font-size="14.00"> 02.17 and 10.19</text>
</g>
<!-- I -->
<g id="node2" class="node"><title>I</title>
<polygon fill="none" stroke="black" points="235,-621 65,-621 65,-451 235,-451 235,-621"/>
<text text-anchor="middle" x="150" y="-554.8" font-family="Helvetica,sans-Serif" font-size="14.00">A control clinic is</text>
<text text-anchor="middle" x="150" y="-539.8" font-family="Helvetica,sans-Serif" font-size="14.00"> randomly selected</text>
<text text-anchor="middle" x="150" y="-524.8" font-family="Helvetica,sans-Serif" font-size="14.00"> (from all clinics, </text>
<text text-anchor="middle" x="150" y="-509.8" font-family="Helvetica,sans-Serif" font-size="14.00"> not limited to respiratory)</text>
</g>
<!-- H&#45;&gt;I -->
<g id="edge1" class="edge"><title>H&#45;&gt;I</title>
<path fill="none" stroke="black" d="M150,-656.988C150,-648.534 150,-639.857 150,-631.225"/>
<polygon fill="black" stroke="black" points="150,-621.127 154.5,-631.127 150,-626.127 150,-631.127 150,-631.127 150,-631.127 150,-626.127 145.5,-631.127 150,-621.127 150,-621.127"/>
</g>
<!-- J -->
<g id="node3" class="node"><title>J</title>
<polygon fill="none" stroke="black" points="249,-415 51,-415 51,-217 249,-217 249,-415"/>
<text text-anchor="middle" x="150" y="-334.8" font-family="Helvetica,sans-Serif" font-size="14.00">Local team</text>
<text text-anchor="middle" x="150" y="-319.8" font-family="Helvetica,sans-Serif" font-size="14.00"> write to clinic lead clinician</text>
<text text-anchor="middle" x="150" y="-304.8" font-family="Helvetica,sans-Serif" font-size="14.00"> to obtain permission to recruit</text>
<text text-anchor="middle" x="150" y="-289.8" font-family="Helvetica,sans-Serif" font-size="14.00"> from clinic</text>
</g>
<!-- I&#45;&gt;J -->
<g id="edge2" class="edge"><title>I&#45;&gt;J</title>
<path fill="none" stroke="black" d="M150,-450.716C150,-442.362 150,-433.804 150,-425.253"/>
<polygon fill="black" stroke="black" points="150,-415.229 154.5,-425.229 150,-420.229 150,-425.229 150,-425.229 150,-425.229 150,-420.229 145.5,-425.229 150,-415.229 150,-415.229"/>
</g>
<!-- K -->
<g id="node4" class="node"><title>K</title>
<polygon fill="none" stroke="black" points="158,-181 1.42109e-14,-181 1.42109e-14,-23 158,-23 158,-181"/>
<text text-anchor="middle" x="79" y="-165.8" font-family="Helvetica,sans-Serif" font-size="14.00">Exclusion criteria:</text>
<text text-anchor="middle" x="79" y="-150.8" font-family="Helvetica,sans-Serif" font-size="14.00"> Unable to consent</text>
<text text-anchor="middle" x="79" y="-135.8" font-family="Helvetica,sans-Serif" font-size="14.00"> Ever worked outside</text>
<text text-anchor="middle" x="79" y="-120.8" font-family="Helvetica,sans-Serif" font-size="14.00"> the UK</text>
<text text-anchor="middle" x="79" y="-105.8" font-family="Helvetica,sans-Serif" font-size="14.00">(does not include work </text>
<text text-anchor="middle" x="79" y="-90.8" font-family="Helvetica,sans-Serif" font-size="14.00"> outside the UK </text>
<text text-anchor="middle" x="79" y="-75.8" font-family="Helvetica,sans-Serif" font-size="14.00"> by members of the </text>
<text text-anchor="middle" x="79" y="-60.8" font-family="Helvetica,sans-Serif" font-size="14.00"> armed forces</text>
<text text-anchor="middle" x="79" y="-45.8" font-family="Helvetica,sans-Serif" font-size="14.00"> or merchant navy</text>
<text text-anchor="middle" x="79" y="-30.8" font-family="Helvetica,sans-Serif" font-size="14.00"> Diagnosis of IPF)</text>
</g>
<!-- J&#45;&gt;K -->
<g id="edge4" class="edge"><title>J&#45;&gt;K</title>
<path fill="none" stroke="black" d="M117.098,-216.758C114.199,-208.101 111.277,-199.375 108.409,-190.813"/>
<polygon fill="black" stroke="black" points="105.199,-181.227 112.641,-189.28 106.787,-185.968 108.374,-190.709 108.374,-190.709 108.374,-190.709 106.787,-185.968 104.107,-192.138 105.199,-181.227 105.199,-181.227"/>
</g>
<!-- L -->
<g id="node5" class="node"><title>L</title>
<polygon fill="none" stroke="black" points="266,-147 176,-147 176,-57 266,-57 266,-147"/>
<text text-anchor="middle" x="221" y="-98.3" font-family="Helvetica,sans-Serif" font-size="14.00">460 controls</text>
</g>
<!-- J&#45;&gt;L -->
<g id="edge3" class="edge"><title>J&#45;&gt;L</title>
<path fill="none" stroke="black" d="M182.902,-216.758C189.82,-196.1 196.871,-175.048 202.995,-156.761"/>
<polygon fill="black" stroke="black" points="206.201,-147.188 207.293,-158.099 204.613,-151.929 203.026,-156.67 203.026,-156.67 203.026,-156.67 204.613,-151.929 198.758,-155.241 206.201,-147.188 206.201,-147.188"/>
</g>
</g>
</svg>
