<?xml version="1.0" encoding="UTF-8" standalone="no"?>
<!DOCTYPE svg PUBLIC "-//W3C//DTD SVG 1.1//EN"
 "http://www.w3.org/Graphics/SVG/1.1/DTD/svg11.dtd">
<!-- Generated by graphviz version 2.38.0 (20140413.2041)
 -->
<!-- Title: %3 Pages: 1 -->
<svg width="544pt" height="1223pt"
 viewBox="0.00 0.00 543.50 1223.00" xmlns="http://www.w3.org/2000/svg" xmlns:xlink="http://www.w3.org/1999/xlink">
<g id="graph0" class="graph" transform="scale(1 1) rotate(0) translate(4 1219)">
<title>%3</title>
<polygon fill="white" stroke="none" points="-4,4 -4,-1219 539.5,-1219 539.5,4 -4,4"/>
<text text-anchor="middle" x="267.75" y="-7.8" font-family="Times,serif" font-size="14.00">IPFJES Flow Chart</text>
<!-- A -->
<g id="node1" class="node"><title>A</title>
<polygon fill="none" stroke="black" points="249.5,-1215 75.5,-1215 75.5,-1041 249.5,-1041 249.5,-1215"/>
<text text-anchor="middle" x="162.5" y="-1146.8" font-family="Helvetica,sans-Serif" font-size="14.00">Inclusion criteria:</text>
<text text-anchor="middle" x="162.5" y="-1131.8" font-family="Helvetica,sans-Serif" font-size="14.00"> Male </text>
<text text-anchor="middle" x="162.5" y="-1116.8" font-family="Helvetica,sans-Serif" font-size="14.00"> Diagnosis of IPF between</text>
<text text-anchor="middle" x="162.5" y="-1101.8" font-family="Helvetica,sans-Serif" font-size="14.00"> 02.17 and 10.19</text>
</g>
<!-- B -->
<g id="node2" class="node"><title>B</title>
<polygon fill="none" stroke="black" points="234,-991.5 91,-991.5 91,-848.5 234,-848.5 234,-991.5"/>
<text text-anchor="middle" x="162.5" y="-931.3" font-family="Helvetica,sans-Serif" font-size="14.00">4800 new diagnoses</text>
<text text-anchor="middle" x="162.5" y="-916.3" font-family="Helvetica,sans-Serif" font-size="14.00"> of IPF per year at</text>
<text text-anchor="middle" x="162.5" y="-901.3" font-family="Helvetica,sans-Serif" font-size="14.00"> 25 specialist centres</text>
</g>
<!-- A&#45;&gt;B -->
<g id="edge1" class="edge"><title>A&#45;&gt;B</title>
<path fill="none" stroke="black" d="M162.5,-1040.83C162.5,-1027.87 162.5,-1014.54 162.5,-1001.7"/>
<polygon fill="black" stroke="black" points="162.5,-991.52 167,-1001.52 162.5,-996.52 162.5,-1001.52 162.5,-1001.52 162.5,-1001.52 162.5,-996.52 158,-1001.52 162.5,-991.52 162.5,-991.52"/>
</g>
<!-- C -->
<g id="node3" class="node"><title>C</title>
<polygon fill="none" stroke="black" points="245.5,-783 79.5,-783 79.5,-617 245.5,-617 245.5,-783"/>
<text text-anchor="middle" x="162.5" y="-711.3" font-family="Helvetica,sans-Serif" font-size="14.00">Estimated 3000 potential</text>
<text text-anchor="middle" x="162.5" y="-696.3" font-family="Helvetica,sans-Serif" font-size="14.00"> cases at 18</text>
<text text-anchor="middle" x="162.5" y="-681.3" font-family="Helvetica,sans-Serif" font-size="14.00"> participating centres</text>
</g>
<!-- B&#45;&gt;C -->
<g id="edge2" class="edge"><title>B&#45;&gt;C</title>
<path fill="none" stroke="black" d="M162.5,-848.222C162.5,-830.703 162.5,-811.677 162.5,-793.299"/>
<polygon fill="black" stroke="black" points="162.5,-783.17 167,-793.17 162.5,-788.17 162.5,-793.17 162.5,-793.17 162.5,-793.17 162.5,-788.17 158,-793.17 162.5,-783.17 162.5,-783.17"/>
</g>
<!-- D -->
<g id="node4" class="node"><title>D</title>
<polygon fill="none" stroke="black" points="155,-563.5 0,-563.5 0,-408.5 155,-408.5 155,-563.5"/>
<text text-anchor="middle" x="77.5" y="-542.3" font-family="Helvetica,sans-Serif" font-size="14.00">Exclusion criteria:</text>
<text text-anchor="middle" x="77.5" y="-527.3" font-family="Helvetica,sans-Serif" font-size="14.00"> Unable to consent</text>
<text text-anchor="middle" x="77.5" y="-512.3" font-family="Helvetica,sans-Serif" font-size="14.00"> Ever worked outside</text>
<text text-anchor="middle" x="77.5" y="-497.3" font-family="Helvetica,sans-Serif" font-size="14.00"> the UK</text>
<text text-anchor="middle" x="77.5" y="-482.3" font-family="Helvetica,sans-Serif" font-size="14.00">(does not include work </text>
<text text-anchor="middle" x="77.5" y="-467.3" font-family="Helvetica,sans-Serif" font-size="14.00"> outside the UK </text>
<text text-anchor="middle" x="77.5" y="-452.3" font-family="Helvetica,sans-Serif" font-size="14.00"> by members of the </text>
<text text-anchor="middle" x="77.5" y="-437.3" font-family="Helvetica,sans-Serif" font-size="14.00"> armed forces</text>
<text text-anchor="middle" x="77.5" y="-422.3" font-family="Helvetica,sans-Serif" font-size="14.00"> or merchant navy)</text>
</g>
<!-- C&#45;&gt;D -->
<g id="edge3" class="edge"><title>C&#45;&gt;D</title>
<path fill="none" stroke="black" d="M129.515,-616.732C123.773,-602.41 117.787,-587.48 112.005,-573.06"/>
<polygon fill="black" stroke="black" points="108.24,-563.669 116.138,-571.276 110.101,-568.31 111.962,-572.951 111.962,-572.951 111.962,-572.951 110.101,-568.31 107.785,-574.626 108.24,-563.669 108.24,-563.669"/>
</g>
<!-- E -->
<g id="node5" class="node"><title>E</title>
<polygon fill="none" stroke="black" points="251.5,-525 173.5,-525 173.5,-447 251.5,-447 251.5,-525"/>
<text text-anchor="middle" x="212.5" y="-482.3" font-family="Helvetica,sans-Serif" font-size="14.00">460 cases</text>
</g>
<!-- C&#45;&gt;E -->
<g id="edge4" class="edge"><title>C&#45;&gt;E</title>
<path fill="none" stroke="black" d="M181.903,-616.732C188.412,-589.133 195.455,-559.271 201.141,-535.163"/>
<polygon fill="black" stroke="black" points="203.489,-525.206 205.573,-535.972 202.341,-530.073 201.194,-534.939 201.194,-534.939 201.194,-534.939 202.341,-530.073 196.814,-533.906 203.489,-525.206 203.489,-525.206"/>
</g>
<!-- F -->
<g id="node6" class="node"><title>F</title>
<polygon fill="none" stroke="black" points="474,-371 229,-371 229,-126 474,-126 474,-371"/>
<text text-anchor="middle" x="351.5" y="-259.8" font-family="Helvetica,sans-Serif" font-size="14.00">Telephone interview for historic</text>
<text text-anchor="middle" x="351.5" y="-244.8" font-family="Helvetica,sans-Serif" font-size="14.00"> asbestos exposure assessment</text>
<text text-anchor="middle" x="351.5" y="-229.8" font-family="Helvetica,sans-Serif" font-size="14.00"> and blood test for genetic suceptibility</text>
</g>
<!-- E&#45;&gt;F -->
<g id="edge5" class="edge"><title>E&#45;&gt;F</title>
<path fill="none" stroke="black" d="M234.987,-446.901C246.053,-428.153 260.112,-404.333 274.606,-379.778"/>
<polygon fill="black" stroke="black" points="279.746,-371.069 278.538,-381.968 277.204,-375.375 274.663,-379.681 274.663,-379.681 274.663,-379.681 277.204,-375.375 270.788,-377.393 279.746,-371.069 279.746,-371.069"/>
</g>
<!-- G -->
<g id="node7" class="node"><title>G</title>
<polygon fill="none" stroke="black" points="385,-90 318,-90 318,-23 385,-23 385,-90"/>
<text text-anchor="middle" x="351.5" y="-52.8" font-family="Helvetica,sans-Serif" font-size="14.00">Analysis</text>
</g>
<!-- F&#45;&gt;G -->
<g id="edge6" class="edge"><title>F&#45;&gt;G</title>
<path fill="none" stroke="black" d="M351.5,-125.826C351.5,-116.954 351.5,-108.42 351.5,-100.569"/>
<polygon fill="black" stroke="black" points="351.5,-90.3185 356,-100.318 351.5,-95.3185 351.5,-100.318 351.5,-100.318 351.5,-100.318 351.5,-95.3185 347,-100.319 351.5,-90.3185 351.5,-90.3185"/>
</g>
<!-- H -->
<g id="node8" class="node"><title>H</title>
<polygon fill="none" stroke="black" points="475.5,-1206 319.5,-1206 319.5,-1050 475.5,-1050 475.5,-1206"/>
<text text-anchor="middle" x="397.5" y="-1154.3" font-family="Helvetica,sans-Serif" font-size="14.00">Inclusion criteria:</text>
<text text-anchor="middle" x="397.5" y="-1139.3" font-family="Helvetica,sans-Serif" font-size="14.00"> Male </text>
<text text-anchor="middle" x="397.5" y="-1124.3" font-family="Helvetica,sans-Serif" font-size="14.00"> Outpatient department</text>
<text text-anchor="middle" x="397.5" y="-1109.3" font-family="Helvetica,sans-Serif" font-size="14.00"> attendee between</text>
<text text-anchor="middle" x="397.5" y="-1094.3" font-family="Helvetica,sans-Serif" font-size="14.00"> 02.17 and 10.19</text>
</g>
<!-- I -->
<g id="node9" class="node"><title>I</title>
<polygon fill="none" stroke="black" points="482.5,-1005 312.5,-1005 312.5,-835 482.5,-835 482.5,-1005"/>
<text text-anchor="middle" x="397.5" y="-938.8" font-family="Helvetica,sans-Serif" font-size="14.00">A control clinic is</text>
<text text-anchor="middle" x="397.5" y="-923.8" font-family="Helvetica,sans-Serif" font-size="14.00"> randomly selected</text>
<text text-anchor="middle" x="397.5" y="-908.8" font-family="Helvetica,sans-Serif" font-size="14.00"> (from all clinics, </text>
<text text-anchor="middle" x="397.5" y="-893.8" font-family="Helvetica,sans-Serif" font-size="14.00"> not limited to respiratory)</text>
</g>
<!-- H&#45;&gt;I -->
<g id="edge7" class="edge"><title>H&#45;&gt;I</title>
<path fill="none" stroke="black" d="M397.5,-1049.71C397.5,-1038.49 397.5,-1026.84 397.5,-1015.34"/>
<polygon fill="black" stroke="black" points="397.5,-1005.28 402,-1015.28 397.5,-1010.28 397.5,-1015.28 397.5,-1015.28 397.5,-1015.28 397.5,-1010.28 393,-1015.28 397.5,-1005.28 397.5,-1005.28"/>
</g>
<!-- J -->
<g id="node10" class="node"><title>J</title>
<polygon fill="none" stroke="black" points="496.5,-799 298.5,-799 298.5,-601 496.5,-601 496.5,-799"/>
<text text-anchor="middle" x="397.5" y="-718.8" font-family="Helvetica,sans-Serif" font-size="14.00">Local team</text>
<text text-anchor="middle" x="397.5" y="-703.8" font-family="Helvetica,sans-Serif" font-size="14.00"> write to clinic lead clinician</text>
<text text-anchor="middle" x="397.5" y="-688.8" font-family="Helvetica,sans-Serif" font-size="14.00"> to obtain permission to recruit</text>
<text text-anchor="middle" x="397.5" y="-673.8" font-family="Helvetica,sans-Serif" font-size="14.00"> from clinic</text>
</g>
<!-- I&#45;&gt;J -->
<g id="edge8" class="edge"><title>I&#45;&gt;J</title>
<path fill="none" stroke="black" d="M397.5,-834.716C397.5,-826.362 397.5,-817.804 397.5,-809.253"/>
<polygon fill="black" stroke="black" points="397.5,-799.229 402,-809.229 397.5,-804.229 397.5,-809.229 397.5,-809.229 397.5,-809.229 397.5,-804.229 393,-809.229 397.5,-799.229 397.5,-799.229"/>
</g>
<!-- K -->
<g id="node11" class="node"><title>K</title>
<polygon fill="none" stroke="black" points="427.5,-565 269.5,-565 269.5,-407 427.5,-407 427.5,-565"/>
<text text-anchor="middle" x="348.5" y="-549.8" font-family="Helvetica,sans-Serif" font-size="14.00">Exclusion criteria:</text>
<text text-anchor="middle" x="348.5" y="-534.8" font-family="Helvetica,sans-Serif" font-size="14.00"> Unable to consent</text>
<text text-anchor="middle" x="348.5" y="-519.8" font-family="Helvetica,sans-Serif" font-size="14.00"> Ever worked outside</text>
<text text-anchor="middle" x="348.5" y="-504.8" font-family="Helvetica,sans-Serif" font-size="14.00"> the UK</text>
<text text-anchor="middle" x="348.5" y="-489.8" font-family="Helvetica,sans-Serif" font-size="14.00">(does not include work </text>
<text text-anchor="middle" x="348.5" y="-474.8" font-family="Helvetica,sans-Serif" font-size="14.00"> outside the UK </text>
<text text-anchor="middle" x="348.5" y="-459.8" font-family="Helvetica,sans-Serif" font-size="14.00"> by members of the </text>
<text text-anchor="middle" x="348.5" y="-444.8" font-family="Helvetica,sans-Serif" font-size="14.00"> armed forces</text>
<text text-anchor="middle" x="348.5" y="-429.8" font-family="Helvetica,sans-Serif" font-size="14.00"> or merchant navy</text>
<text text-anchor="middle" x="348.5" y="-414.8" font-family="Helvetica,sans-Serif" font-size="14.00"> Diagnosis of IPF)</text>
</g>
<!-- J&#45;&gt;K -->
<g id="edge10" class="edge"><title>J&#45;&gt;K</title>
<path fill="none" stroke="black" d="M374.793,-600.758C372.814,-592.194 370.819,-583.563 368.86,-575.089"/>
<polygon fill="black" stroke="black" points="366.581,-565.227 373.217,-573.957 367.707,-570.099 368.833,-574.97 368.833,-574.97 368.833,-574.97 367.707,-570.099 364.448,-575.984 366.581,-565.227 366.581,-565.227"/>
</g>
<!-- L -->
<g id="node12" class="node"><title>L</title>
<polygon fill="none" stroke="black" points="535.5,-531 445.5,-531 445.5,-441 535.5,-441 535.5,-531"/>
<text text-anchor="middle" x="490.5" y="-482.3" font-family="Helvetica,sans-Serif" font-size="14.00">460 controls</text>
</g>
<!-- J&#45;&gt;L -->
<g id="edge9" class="edge"><title>J&#45;&gt;L</title>
<path fill="none" stroke="black" d="M440.597,-600.758C449.701,-580.005 458.979,-558.854 467.027,-540.508"/>
<polygon fill="black" stroke="black" points="471.116,-531.188 471.219,-542.153 469.107,-535.766 467.099,-540.345 467.099,-540.345 467.099,-540.345 469.107,-535.766 462.978,-538.537 471.116,-531.188 471.116,-531.188"/>
</g>
<!-- L&#45;&gt;F -->
<g id="edge11" class="edge"><title>L&#45;&gt;F</title>
<path fill="none" stroke="black" d="M464.518,-440.981C454.113,-423.351 441.53,-402.032 428.592,-380.112"/>
<polygon fill="black" stroke="black" points="423.425,-371.358 432.383,-377.682 425.966,-375.664 428.508,-379.97 428.508,-379.97 428.508,-379.97 425.966,-375.664 424.632,-382.257 423.425,-371.358 423.425,-371.358"/>
</g>
</g>
</svg>
