<?xml version="1.0" encoding="UTF-8" standalone="no"?>
<!DOCTYPE svg PUBLIC "-//W3C//DTD SVG 1.1//EN"
 "http://www.w3.org/Graphics/SVG/1.1/DTD/svg11.dtd">
<!-- Generated by graphviz version 2.38.0 (20140413.2041)
 -->
<!-- Title: %3 Pages: 1 -->
<svg width="408pt" height="710pt"
 viewBox="0.00 0.00 408.00 710.00" xmlns="http://www.w3.org/2000/svg" xmlns:xlink="http://www.w3.org/1999/xlink">
<g id="graph0" class="graph" transform="scale(1 1) rotate(0) translate(4 706)">
<title>%3</title>
<polygon fill="white" stroke="none" points="-4,4 -4,-706 404,-706 404,4 -4,4"/>
<text text-anchor="middle" x="200" y="-9.2" font-family="Times,serif" font-size="16.00">Case recruitment</text>
<!-- A -->
<g id="node1" class="node"><title>A</title>
<polygon fill="none" stroke="black" points="200.5,-702 26.5,-702 26.5,-528 200.5,-528 200.5,-702"/>
<text text-anchor="middle" x="113.5" y="-633.8" font-family="Helvetica,sans-Serif" font-size="14.00">Inclusion criteria:</text>
<text text-anchor="middle" x="113.5" y="-618.8" font-family="Helvetica,sans-Serif" font-size="14.00"> Male </text>
<text text-anchor="middle" x="113.5" y="-603.8" font-family="Helvetica,sans-Serif" font-size="14.00"> Diagnosis of IPF between</text>
<text text-anchor="middle" x="113.5" y="-588.8" font-family="Helvetica,sans-Serif" font-size="14.00"> 02.17 and 10.19</text>
</g>
<!-- B -->
<g id="node2" class="node"><title>B</title>
<polygon fill="none" stroke="black" points="227,-492 0,-492 0,-265 227,-265 227,-492"/>
<text text-anchor="middle" x="113.5" y="-419.8" font-family="Helvetica,sans-Serif" font-size="14.00">Patients provided with:</text>
<text text-anchor="middle" x="113.5" y="-404.8" font-family="Helvetica,sans-Serif" font-size="14.00"> Participant information sheet</text>
<text text-anchor="middle" x="113.5" y="-389.8" font-family="Helvetica,sans-Serif" font-size="14.00"> Participant job history sheet</text>
<text text-anchor="middle" x="113.5" y="-374.8" font-family="Helvetica,sans-Serif" font-size="14.00"> and enrolled at </text>
<text text-anchor="middle" x="113.5" y="-359.8" font-family="Helvetica,sans-Serif" font-size="14.00"> outpatient department attendance.</text>
<text text-anchor="middle" x="113.5" y="-344.8" font-family="Helvetica,sans-Serif" font-size="14.00"> Blood drawn and</text>
<text text-anchor="middle" x="113.5" y="-329.8" font-family="Helvetica,sans-Serif" font-size="14.00"> Case Report Form completed</text>
</g>
<!-- A&#45;&gt;B -->
<g id="edge2" class="edge"><title>A&#45;&gt;B</title>
<path fill="none" stroke="black" d="M113.5,-527.68C113.5,-519.326 113.5,-510.747 113.5,-502.128"/>
<polygon fill="black" stroke="black" points="113.5,-492.004 118,-502.004 113.5,-497.004 113.5,-502.004 113.5,-502.004 113.5,-502.004 113.5,-497.004 109,-502.005 113.5,-492.004 113.5,-492.004"/>
</g>
<!-- C -->
<g id="node3" class="node"><title>C</title>
<polygon fill="none" stroke="black" points="400,-456 245,-456 245,-301 400,-301 400,-456"/>
<text text-anchor="middle" x="322.5" y="-434.8" font-family="Helvetica,sans-Serif" font-size="14.00">Exclusion criteria:</text>
<text text-anchor="middle" x="322.5" y="-419.8" font-family="Helvetica,sans-Serif" font-size="14.00"> Unable to consent</text>
<text text-anchor="middle" x="322.5" y="-404.8" font-family="Helvetica,sans-Serif" font-size="14.00"> Ever worked outside</text>
<text text-anchor="middle" x="322.5" y="-389.8" font-family="Helvetica,sans-Serif" font-size="14.00"> the UK</text>
<text text-anchor="middle" x="322.5" y="-374.8" font-family="Helvetica,sans-Serif" font-size="14.00">(does not include work </text>
<text text-anchor="middle" x="322.5" y="-359.8" font-family="Helvetica,sans-Serif" font-size="14.00"> outside the UK </text>
<text text-anchor="middle" x="322.5" y="-344.8" font-family="Helvetica,sans-Serif" font-size="14.00"> by members of the </text>
<text text-anchor="middle" x="322.5" y="-329.8" font-family="Helvetica,sans-Serif" font-size="14.00"> armed forces</text>
<text text-anchor="middle" x="322.5" y="-314.8" font-family="Helvetica,sans-Serif" font-size="14.00"> or merchant navy)</text>
</g>
<!-- B&#45;&gt;C -->
<g id="edge1" class="edge"><title>B&#45;&gt;C</title>
<path fill="none" stroke="black" d="M227.389,-378.5C229.844,-378.5 232.3,-378.5 234.755,-378.5"/>
<polygon fill="black" stroke="black" points="244.851,-378.5 234.851,-383 239.851,-378.5 234.851,-378.5 234.851,-378.5 234.851,-378.5 239.851,-378.5 234.85,-374 244.851,-378.5 244.851,-378.5"/>
</g>
<!-- D -->
<g id="node4" class="node"><title>D</title>
<polygon fill="none" stroke="black" points="215,-229 12,-229 12,-26 215,-26 215,-229"/>
<text text-anchor="middle" x="113.5" y="-131.3" font-family="Helvetica,sans-Serif" font-size="14.00">Central research team updated</text>
<text text-anchor="middle" x="113.5" y="-116.3" font-family="Helvetica,sans-Serif" font-size="14.00"> monthly</text>
</g>
<!-- B&#45;&gt;D -->
<g id="edge3" class="edge"><title>B&#45;&gt;D</title>
<path fill="none" stroke="black" d="M113.5,-264.657C113.5,-256.24 113.5,-247.753 113.5,-239.349"/>
<polygon fill="black" stroke="black" points="113.5,-229.15 118,-239.15 113.5,-234.15 113.5,-239.15 113.5,-239.15 113.5,-239.15 113.5,-234.15 109,-239.15 113.5,-229.15 113.5,-229.15"/>
</g>
</g>
</svg>
